<svg width="729" height="687" viewBox="0 0 729 687" fill="none" xmlns="http://www.w3.org/2000/svg">
<path d="M160.184 157.614C163.196 140.695 177.907 128.372 195.092 128.372H230.564C252.633 128.372 269.34 148.316 265.472 170.043L197.471 552.025C194.459 568.945 179.748 581.268 162.563 581.268H127.091C105.022 581.268 88.3149 561.324 92.1828 539.597L160.184 157.614Z" fill="white"/>
<path d="M283.166 157.878C286.067 140.837 300.834 128.371 318.121 128.371H343.733C365.693 128.371 382.373 148.129 378.688 169.777L335.017 426.342C332.117 443.384 317.349 455.85 300.063 455.85H274.45C252.49 455.85 235.811 436.091 239.496 414.443L283.166 157.878Z" fill="white"/>
<path d="M397.273 161.161L380.815 262.51C374.265 302.841 431.457 318.208 446.003 280.025C453.686 259.856 477.687 251.475 496.254 262.477L506.268 268.411C520.687 276.955 539.12 274.235 550.457 261.89L611.776 195.123C615.71 190.84 622.42 190.697 626.533 194.81C632.972 201.249 643.982 196.688 643.982 187.582V113.36C643.982 103.569 636.045 95.6318 626.254 95.6318H553.532C543.872 95.6318 539.034 107.311 545.865 114.142C549.607 117.884 550.101 123.781 547.034 128.093L530.971 150.68C519.499 166.812 497.039 170.426 481.085 158.706L453.263 138.269C431.909 122.582 401.52 135.007 397.273 161.161Z" fill="white"/>
</svg>
