<svg width="874" height="823" viewBox="0 0 874 823" fill="none" xmlns="http://www.w3.org/2000/svg">
<path d="M193.288 181.003C196.092 165.256 209.783 153.787 225.778 153.787H287.524C308.063 153.787 323.613 172.349 320.013 192.571L235.174 669.131C232.371 684.878 218.679 696.348 202.685 696.348H140.939C120.4 696.348 104.85 677.785 108.45 657.564L193.288 181.003Z" fill="#1E6BFF"/>
<path d="M340.569 181.248C343.269 165.388 357.013 153.786 373.101 153.786H423.011C443.449 153.786 458.973 172.175 455.543 192.323L400.001 518.636C397.301 534.497 383.557 546.099 367.469 546.099H317.559C297.121 546.099 281.597 527.71 285.027 507.561L340.569 181.248Z" fill="#1E6BFF"/>
<path d="M532.062 341.343L550.231 293.651C551.114 291.332 553.873 290.369 556.008 291.633L606.133 321.334C623.621 331.696 645.974 328.398 659.723 313.427L732.895 233.754C737.608 228.623 745.647 228.452 750.573 233.378C758.288 241.093 771.478 235.629 771.478 224.719V141.565C771.478 126.653 759.39 114.565 744.478 114.565H663.12C651.548 114.565 645.752 128.557 653.935 136.74C658.418 141.223 659.01 148.287 655.336 153.453L636.401 180.079C622.488 199.643 595.249 204.025 575.902 189.813L543.689 166.15C517.792 147.126 480.939 162.194 475.788 193.911L455.2 320.692C447.477 368.246 514.911 386.364 532.062 341.343Z" fill="#1E6BFF"/>
</svg>
