<svg width="1962" height="479" viewBox="0 0 1962 479" fill="none" xmlns="http://www.w3.org/2000/svg">
<path d="M73.1201 58.1436C75.853 42.7918 89.2014 31.6099 104.795 31.6099H143.229C163.254 31.6099 178.414 49.7066 174.904 69.4211L108.515 442.346C105.782 457.698 92.4338 468.88 76.8406 468.88H38.4057C18.3812 468.88 3.22161 450.783 6.73123 431.068L73.1201 58.1436Z" fill="#1E6BFF"/>
<path d="M191.849 58.3838C194.481 42.921 207.88 31.6099 223.565 31.6099H252.476C272.402 31.6099 287.536 49.5378 284.192 69.1808L241.327 321.016C238.695 336.478 225.296 347.79 209.611 347.79H180.7C160.774 347.79 145.64 329.862 148.984 310.219L191.849 58.3838Z" fill="#1E6BFF"/>
<path d="M343.931 190.746L349.375 176.454C356.479 157.805 378.672 150.056 395.84 160.228L408.398 167.669C421.482 175.422 438.207 172.954 448.494 161.753L508.828 96.0588C512.627 91.9231 519.105 91.7854 523.076 95.7559C529.293 101.973 539.923 97.5698 539.923 88.7774V16.0862C539.923 7.20205 532.721 0 523.837 0H452.594C443.267 0 438.596 11.2765 445.191 17.8715C448.804 21.4844 449.281 27.1776 446.32 31.3414L429.599 54.8545C419.189 69.4924 398.809 72.7713 384.333 62.1374L353.07 39.1715C333.694 24.938 306.12 36.2117 302.266 59.943L283.655 174.551C277.599 211.843 330.481 226.052 343.931 190.746Z" fill="#1E6BFF"/>
<path d="M713.105 144.453C760.785 144.453 790.616 169.185 790.616 209.215C790.616 248.99 760.785 273.722 713.105 273.722H677.155V322.931H635.849V144.453H713.105ZM710.811 240.066C736.053 240.066 748.801 228.593 748.801 209.215C748.801 189.582 736.053 178.109 710.811 178.109H677.155V240.066H710.811ZM807.042 322.931V133.744H846.817V322.931H807.042ZM926.312 183.718C968.127 183.718 992.349 203.096 992.349 244.656V322.931H955.123V305.848C947.729 318.342 933.451 324.971 913.308 324.971C881.182 324.971 862.059 307.123 862.059 283.411C862.059 259.189 879.142 242.361 920.957 242.361H952.573C952.573 225.278 942.375 215.334 920.957 215.334C906.424 215.334 891.381 220.179 881.437 228.083L867.159 200.291C882.202 189.582 904.384 183.718 926.312 183.718ZM923.252 298.199C936.51 298.199 947.984 292.08 952.573 279.587V265.563H925.292C906.679 265.563 900.815 272.447 900.815 281.626C900.815 291.57 909.229 298.199 923.252 298.199ZM1098.97 183.718C1131.35 183.718 1155.83 202.586 1155.83 244.401V322.931H1116.06V250.52C1116.06 228.338 1105.86 218.139 1088.26 218.139C1069.14 218.139 1055.37 229.868 1055.37 255.11V322.931H1015.6V185.758H1053.59V201.821C1064.3 190.092 1080.36 183.718 1098.97 183.718ZM1383.11 322.931H1344.36L1344.1 215.844L1291.58 304.064H1272.97L1220.7 218.139V322.931H1181.94V144.453H1216.11L1282.91 255.364L1348.69 144.453H1382.6L1383.11 322.931ZM1507.81 185.758H1546.06L1484.1 331.345C1470.84 364.491 1451.98 374.435 1427.24 374.435C1413.22 374.435 1397.92 369.846 1389 361.942L1403.53 333.64C1409.65 338.994 1418.06 342.309 1425.97 342.309C1436.93 342.309 1443.05 337.465 1448.41 325.226L1448.92 323.951L1389.51 185.758H1430.56L1469.06 278.822L1507.81 185.758ZM1585.08 322.931V178.109H1527.97V144.453H1683.5V178.109H1626.39V322.931H1585.08ZM1738.53 183.718C1780.34 183.718 1804.57 203.096 1804.57 244.656V322.931H1767.34V305.848C1759.95 318.342 1745.67 324.971 1725.53 324.971C1693.4 324.971 1674.28 307.123 1674.28 283.411C1674.28 259.189 1691.36 242.361 1733.17 242.361H1764.79C1764.79 225.278 1754.59 215.334 1733.17 215.334C1718.64 215.334 1703.6 220.179 1693.65 228.083L1679.38 200.291C1694.42 189.582 1716.6 183.718 1738.53 183.718ZM1735.47 298.199C1748.73 298.199 1760.2 292.08 1764.79 279.587V265.563H1737.51C1718.9 265.563 1713.03 272.447 1713.03 281.626C1713.03 291.57 1721.45 298.199 1735.47 298.199ZM1960.15 322.931H1915.02L1884.93 280.861L1853.82 322.931H1810.48L1863.26 253.835L1812.26 185.758H1856.88L1885.95 225.788L1915.78 185.758H1958.11L1907.11 252.815L1960.15 322.931Z" fill="white"/>
</svg>
